<svg width="20" height="15" viewBox="0 0 20 15" fill="none" xmlns="http://www.w3.org/2000/svg">
<path d="M9.96316 0C12.0062 0 14.1862 0.775 16.1472 2.434C17.5962 3.66 18.8502 5.236 19.9102 7.156C20.0202 7.354 20.0302 7.595 19.9372 7.801C18.9492 10.001 17.6422 11.683 16.0162 12.833C13.9402 14.3 11.7492 15 9.99916 15C8.02616 15 6.26516 14.475 4.25916 12.906C2.68216 11.674 1.29516 10.005 0.0951624 7.906C0.0365614 7.8033 0.00400783 7.6878 0.000347088 7.56961C-0.00331366 7.45142 0.0220298 7.33413 0.0741624 7.228C0.808162 5.735 1.92516 4.278 3.42116 2.851C5.43816 0.928 7.83316 0 9.96316 0ZM9.99916 3.406C7.85116 3.406 6.10916 5.198 6.10916 7.409C6.10916 9.619 7.85116 11.411 9.99916 11.411C12.1482 11.411 13.8892 9.619 13.8892 7.409C13.8892 5.199 12.1482 3.406 10.0002 3.406M10.0002 4.819C11.3902 4.819 12.5172 5.979 12.5172 7.409C12.5172 8.839 11.3902 9.999 10.0002 9.999C8.61016 9.999 7.48316 8.839 7.48316 7.409C7.48316 5.979 8.61016 4.819 10.0002 4.819Z" fill="#A5A5A5"/>
</svg>
