<svg width="14" height="19" viewBox="0 0 14 19" fill="none" xmlns="http://www.w3.org/2000/svg">
<path d="M6.99998 14.1666C6.55795 14.1666 6.13403 13.991 5.82147 13.6784C5.50891 13.3659 5.33331 12.9419 5.33331 12.4999C5.33331 11.5749 6.07498 10.8333 6.99998 10.8333C7.44201 10.8333 7.86593 11.0088 8.17849 11.3214C8.49105 11.634 8.66665 12.0579 8.66665 12.4999C8.66665 12.9419 8.49105 13.3659 8.17849 13.6784C7.86593 13.991 7.44201 14.1666 6.99998 14.1666ZM12 16.6666V8.33325H1.99998V16.6666H12ZM12 6.66658C12.442 6.66658 12.8659 6.84218 13.1785 7.15474C13.4911 7.4673 13.6666 7.89122 13.6666 8.33325V16.6666C13.6666 17.1086 13.4911 17.5325 13.1785 17.8451C12.8659 18.1577 12.442 18.3333 12 18.3333H1.99998C1.55795 18.3333 1.13403 18.1577 0.821468 17.8451C0.508908 17.5325 0.333313 17.1086 0.333313 16.6666V8.33325C0.333313 7.40825 1.07498 6.66658 1.99998 6.66658H2.83331V4.99992C2.83331 3.89485 3.2723 2.83504 4.0537 2.05364C4.8351 1.27224 5.89491 0.833252 6.99998 0.833252C7.54715 0.833252 8.08897 0.941026 8.59449 1.15042C9.10002 1.35982 9.55935 1.66673 9.94626 2.05364C10.3332 2.44055 10.6401 2.89988 10.8495 3.4054C11.0589 3.91093 11.1666 4.45274 11.1666 4.99992V6.66658H12ZM6.99998 2.49992C6.33694 2.49992 5.70105 2.76331 5.23221 3.23215C4.76337 3.70099 4.49998 4.33688 4.49998 4.99992V6.66658H9.49998V4.99992C9.49998 4.33688 9.23659 3.70099 8.76775 3.23215C8.29891 2.76331 7.66302 2.49992 6.99998 2.49992Z" fill="black"/>
</svg>
