<svg width="20" height="15" viewBox="0 0 20 15" fill="none" xmlns="http://www.w3.org/2000/svg">
<path d="M20 1.25016V13.7502C20 14.4595 19.4594 15.0002 18.75 15.0002H17.5V3.65578L10 9.04328L2.5 3.65578V15.0002H1.25C0.540625 15.0002 0 14.4595 0 13.7502V1.25016C0 0.895157 0.13375 0.582657 0.358125 0.361407C0.474983 0.244487 0.614156 0.152256 0.767371 0.0901966C0.920586 0.0281376 1.08471 -0.0024824 1.25 0.000157234H1.66688L10 6.04203L18.3331 0.000157234H18.75C19.105 0.000157234 19.4175 0.133907 19.6419 0.361407C19.8662 0.582657 20 0.895157 20 1.25016Z" fill="white"/>
</svg>
